<?xml version="1.0" standalone="no"?>
<!DOCTYPE svg PUBLIC "-//W3C//DTD SVG 20010904//EN"
 "http://www.w3.org/TR/2001/REC-SVG-20010904/DTD/svg10.dtd">
<svg version="1.0" xmlns="http://www.w3.org/2000/svg"
 width="320.000000pt" height="320.000000pt" viewBox="0 0 320.000000 320.000000"
 preserveAspectRatio="xMidYMid meet">
<metadata>
Created by potrace 1.11, written by Peter Selinger 2001-2013
</metadata>
<g transform="translate(0.000000,320.000000) scale(0.100000,-0.100000)"
fill="#000000" stroke="none">
<path d="M1015 2365 c1 -41 -2 -72 -7 -69 -4 3 -8 12 -8 20 0 15 -1 15 -110
-12 -30 -7 -66 -15 -80 -18 -14 -3 -52 -12 -86 -20 -34 -8 -73 -17 -88 -20
-14 -3 -34 -7 -44 -10 -9 -3 -28 -8 -42 -10 -34 -7 -260 -60 -390 -91 -58 -14
-116 -27 -130 -31 -13 -3 -26 -6 -27 -7 -1 -2 7 -41 18 -87 10 -47 23 -103 28
-125 7 -34 96 -422 177 -775 14 -58 26 -112 28 -120 11 -61 50 -216 55 -222 3
-4 150 27 326 68 176 41 334 78 350 82 28 6 554 7 1005 1 211 -3 242 -7 445
-64 28 -8 62 -16 76 -19 25 -4 163 -38 286 -71 20 -5 24 0 38 52 9 32 34 119
55 193 33 114 51 180 66 235 2 6 17 57 34 115 17 58 33 114 36 125 2 11 42
153 88 315 47 162 83 296 82 298 -3 2 -104 30 -136 37 -18 4 -736 183 -766
191 -18 5 -23 -1 -33 -40 -6 -25 -13 -46 -15 -46 -1 0 -1 43 1 95 l4 95 -143
0 c-79 1 -357 3 -619 5 l-476 4 2 -74z"/>
</g>
</svg>
